Commando (2013)
 
http://www.shotpix.com/images/06823195640831876355.jpg


[B]INFO[/B]

[CODE]
Format                                   : Matroska
Format version                           : Version 4 / Version 2
File size                                : 748 MiB
Duration                                 : 1h 58mn
Overall bit rate mode                    : Variable
Overall bit rate                         : 880 Kbps
[/CODE]

VIDEO 
[CODE]Format                                   : AVC
Format/Info                              : Advanced Video Codec
Format profile                           : High@L3.0
Format settings, CABAC                   : Yes
Format settings, ReFrames                : 4 frames
Codec ID                                 : V_MPEG4/ISO/AVC
Duration                                 : 1h 58mn
Bit rate                                 : 796 Kbps
Width                                    : 720 pixels
Height                                   : 352 pixels
Display aspect ratio                     : 2.045
Frame rate mode                          : Constant
Frame rate                               : 25.000 fps
Color space                              : YUV
Chroma subsampling                       : 4:2:0
Bit depth                                : 8 bits
Scan type                                : Progressive
Bits/(Pixel*Frame)                       : 0.126
Stream size                              : 665 MiB (89%)[/CODE]

AUDIO
[CODE]Format                                   : MPEG Audio
Format version                           : Version 1
Format profile                           : Layer 3
Mode                                     : Joint stereo
Mode extension                           : MS Stereo
Codec ID                                 : A_MPEG/L3
Codec ID/Hint                            : MP3
Duration                                 : 2h 1mn
Bit rate mode                            : Variable
Bit rate                                 : 80.0 Kbps
Channel(s)                               : 2 channels
Sampling rate                            : 32.0 KHz
Compression mode                         : Lossy
Stream size                              : 69.7 MiB (9%)
Language                                 : Hindi[/CODE]


[B]SCREEN SHOTS[/B]
 
http://www.shotpix.com/images/24322822195880017720.jpg
 
http://www.shotpix.com/images/80391631437198302302.jpg
 
http://www.shotpix.com/images/84740076811058078339.jpg
 
http://www.shotpix.com/images/09343610717201683855.jpg
 
http://www.shotpix.com/images/96095937455031836472.jpg
 
http://www.shotpix.com/images/38020803501426040638.jpg
 
http://www.shotpix.com/images/14908673861592716906.jpg